<?xml version="1.0" encoding="utf-8"?>
<svg version="1.1" id="Layer_1" xmlns="http://www.w3.org/2000/svg" xmlns:xlink="http://www.w3.org/1999/xlink" x="0px" y="0px"
     viewBox="0 0 24.5 24.5" width="20" height="20" style="enable-background:new 0 0 24.5 24.5;" xml:space="preserve">
  <style type="text/css">
    path { fill: #f0f0f1; }
    #adminmenu .wp-menu-image:hover path { fill: #ffffff; }
  </style>
  <g transform="scale(0.816)"> <!-- This scales down the paths to fit in 20x20 -->
    <path d="M20.3,3.3H4.2c-0.3,0-0.5-0.2-0.5-0.5s0.2-0.5,0.5-0.5h16.1c0.3,0,0.5,0.2,0.5,0.5S20.6,3.3,20.3,3.3z"/>
    <path d="M18,14.6h-0.2L6.4,10.9c-0.3,0-0.4-0.3-0.4-0.6C6.1,10,6.4,9.9,6.7,10l11.4,3.6c0.3,0.1,0.4,0.4,0.3,0.6
      C18.4,14.5,18.2,14.6,18,14.6z"/>
    <path d="M17.3,7C17.3,7,17.2,7,17.3,7L0.5,5.3C0.2,5.3,0,5,0,4.8c0-0.3,0.3-0.5,0.6-0.5L17.4,6c0.3,0,0.5,0.3,0.5,0.5
      C17.8,6.8,17.5,7,17.3,7z"/>
    <path d="M14.9,10L2.5,7.7C2.2,7.7,2,7.4,2.1,7.1c0.1-0.3,0.3-0.4,0.6-0.4L15,9c0.3,0.1,0.5,0.3,0.4,0.6C15.4,9.8,15.2,10,14.9,10z"/>
    <path d="M4.1,21.2h16.1c0.3,0,0.5,0.2,0.5,0.5s-0.2,0.5-0.5,0.5H4.1c-0.3,0-0.5-0.2-0.5-0.5C3.6,21.5,3.8,21.2,4.1,21.2z"/>
    <path d="M7.2,17.6C7.2,17.6,7.3,17.6,7.2,17.6L24,19.3c0.3,0,0.5,0.3,0.5,0.5c0,0.3-0.3,0.5-0.6,0.4L7.2,18.6
      c-0.3,0-0.5-0.3-0.5-0.5C6.7,17.8,7,17.6,7.2,17.6z"/>
    <path d="M9.6,14.5L22,16.8c0.3,0.1,0.5,0.3,0.4,0.6c-0.1,0.3-0.3,0.4-0.6,0.4L9.5,15.5c-0.3-0.1-0.5-0.3-0.4-0.6
      C9.1,14.7,9.3,14.5,9.6,14.5z"/>
  </g>
</svg>